<?xml version="1.0" encoding="UTF-8"?>
<svg id="Layer_1" data-name="Layer 1" xmlns="http://www.w3.org/2000/svg" viewBox="0 0 350 375.85">
  <defs>
    <style>
      .cls-1 {
        fill: #f3f3e5;
      }

      .cls-2 {
        fill: #3b4e5d;
      }

      .cls-3 {
        fill: #f8ba4b;
      }

      .cls-4 {
        fill: #d9527c;
      }

      .cls-5 {
        fill: #f3f2e3;
      }

      .cls-6 {
        fill: #173641;
      }

      .cls-7 {
        fill: #d3843d;
      }

      .cls-8 {
        fill: #163542;
      }

      .cls-9 {
        fill: #f78c96;
      }
    </style>
  </defs>
  <g>
    <path class="cls-3" d="M340.51,216.79c-26.82,23.11-64.67,32.78-95.45,9.63l-21.25-15.98c-28.57-21.48-68.96-21.49-97.61.03l-21.23,15.94c-19.92,14.96-45.4,17.5-68.07,7.07-10.17-4.68-18.7-11.11-27.15-17.9,1.68-2.72,3.53-5.22,5.71-7.38,12.16-12.06,18.47-28.08,17.15-45.39-1.33-17.42,3.09-34.02,13.09-48.33C27.62,82.78,27.96,35.5,32.36.02c7.47,1.33,13.93,4,20.63,7.1,10.73,5.64,20.42,11.84,30.36,18.95,15.72,11.66,30.18,23.92,44.84,37.59,32.66-7.48,66.06-7.15,98.71,1.3,22.88-21.13,45.92-40.9,73.1-56.02,7.8-3.91,15.32-7.36,24.13-8.95,4.6,37.09,4.91,88.11-16.56,119.63,7.89,13.38,11.02,27.97,9.84,43.21-1.37,17.73,5.31,34.01,17.96,46.19,2.38,2.29,4.44,5.05,5.14,7.76ZM110.12,84.22c-16.76-16.87-33.17-31.29-51.67-45.15,1,22.61,5.44,43.4,12.83,64.64l38.84-19.48ZM285.26,103.62c7.51-21.75,11.77-42.15,12.77-64.52-18.57,13.93-35.16,28.52-51.64,45.15l38.87,19.37ZM129.61,142.68c-1.53-12.46-12.1-20.45-24.26-19.67-3.92.25-15.39-.33-14.58,6.51,1.47,12.44,12.12,20.42,24.24,19.66,3.82-.24,15.43.27,14.59-6.51ZM235.49,149.19c12.2.59,22.3-7.63,23.75-19.65.83-6.85-10.68-6.27-14.58-6.52-12.13-.78-22.78,7.2-24.24,19.67-.79,6.73,10.32,6.28,15.07,6.51ZM119.71,186.82l6.92-10.8c-17.34-9.87-35.77-14.36-55.33-14v13.04c17.28-.47,33.1,3.76,48.41,11.76ZM278.73,174.99l-.02-12.97c-19.56-.37-37.98,4.14-55.34,14.01l7.23,10.82c15.42-8.41,31.07-12.04,48.12-11.86Z"/>
    <path class="cls-7" d="M110.12,84.22l-38.84,19.48c-7.38-21.24-11.83-42.03-12.83-64.64,18.49,13.87,34.9,28.28,51.67,45.15Z"/>
    <path class="cls-7" d="M285.26,103.62l-38.87-19.37c16.48-16.63,33.07-31.22,51.64-45.15-1,22.38-5.26,42.77-12.77,64.52Z"/>
    <path class="cls-5" d="M129.61,142.68c.83,6.78-10.77,6.27-14.59,6.51-12.13.76-22.77-7.22-24.24-19.66-.81-6.84,10.66-6.26,14.58-6.51,12.16-.78,22.73,7.21,24.26,19.67Z"/>
    <path class="cls-5" d="M235.49,149.19c-4.75-.23-15.86.22-15.07-6.51,1.46-12.46,12.11-20.45,24.24-19.67,3.9.25,15.4-.33,14.58,6.52-1.45,12.02-11.55,20.24-23.75,19.65Z"/>
    <path class="cls-6" d="M278.73,174.99c-17.06-.18-32.7,3.45-48.12,11.86l-7.23-10.82c17.36-9.87,35.78-14.38,55.34-14.01l.02,12.97Z"/>
    <path class="cls-6" d="M119.71,186.82c-15.32-8.01-31.13-12.23-48.42-11.76v-13.04c19.57-.36,38,4.13,55.34,14l-6.92,10.8Z"/>
  </g>
  <g>
    <path class="cls-1" d="M340.51,216.79c8.07,8.35,10.14,21.49,9.33,33.61-1.98,29.45-22.49,57.52-44.21,76.42-75.11,65.41-186.11,65.32-261.24-.01C22.78,308.02,2.62,280.43.21,251.21c-1.07-12.92,1.83-25.84,9.55-35.61,8.45,6.8,16.98,13.22,27.15,17.9,22.67,10.43,48.15,7.89,68.07-7.07l21.23-15.94c28.64-21.51,69.04-21.51,97.61-.03l21.25,15.98c30.78,23.14,68.62,13.47,95.45-9.63ZM175.37,258.78c14.3-.27,24.88-13.07,25.43-26.09.23-5.39-4.24-9.19-9.01-10.38-9.91-2.47-43.23-5.32-42.59,10.39.54,13.25,11.66,26.35,26.17,26.08ZM149.08,291.69c.04,14.15,11.44,25.7,25.54,25.9,14.49.21,26.25-11.47,26.32-25.9,16.76-.45,37.61-7.03,38.9-25.94l-12.7.08c-4.18,12.99-26.32,14.83-37.72,10.97-4.94-1.67-7.82-5.78-7.93-11.04h-12.96c-.12,5.26-3,9.35-7.93,11.03-11.8,4.03-33.41,1.81-37.95-11.06l-12.47.04c.75,18.64,23.82,26.2,38.9,25.91Z"/>
    <g>
      <path class="cls-2" d="M200.94,291.69c-6.59.18-12.86-1.02-19.46-4.13l-6.46-5.09-6.48,5.08c-5.94,2.76-12.34,4.38-19.46,4.13-15.08.29-38.15-7.28-38.9-25.91l12.47-.04c4.54,12.87,26.15,15.09,37.95,11.06,4.93-1.68,7.81-5.77,7.93-11.03h12.96c.12,5.26,2.99,9.37,7.93,11.04,11.4,3.86,33.53,2.01,37.72-10.97l12.7-.08c-1.29,18.91-22.13,25.5-38.9,25.94Z"/>
      <path class="cls-8" d="M175.37,258.78c-14.51.27-25.62-12.82-26.17-26.08-.64-15.71,32.68-12.86,42.59-10.39,4.77,1.19,9.24,5,9.01,10.38-.55,13.02-11.13,25.82-25.43,26.09Z"/>
      <path class="cls-9" d="M168.54,287.55l-.02,10.62h12.98s-.02-10.62-.02-10.62c6.6,3.11,12.87,4.31,19.46,4.13-.07,14.44-11.83,26.11-26.32,25.9-14.09-.2-25.5-11.75-25.54-25.9,7.12.25,13.52-1.38,19.46-4.13Z"/>
      <polygon class="cls-4" points="181.48 287.55 181.5 298.17 168.52 298.17 168.54 287.55 175.02 282.47 181.48 287.55"/>
    </g>
  </g>
</svg>